<?xml version="1.0" standalone="no"?>
<!DOCTYPE svg PUBLIC "-//W3C//DTD SVG 20010904//EN"
 "http://www.w3.org/TR/2001/REC-SVG-20010904/DTD/svg10.dtd">
<svg version="1.0" xmlns="http://www.w3.org/2000/svg"
 width="1600.000000pt" height="1600.000000pt" viewBox="0 0 1600.000000 1600.000000"
 preserveAspectRatio="xMidYMid meet">

<g transform="translate(0.000000,1600.000000) scale(0.100000,-0.100000)"
fill="#000000" stroke="none">
<path d="M0 8000 l0 -8000 8000 0 8000 0 0 8000 0 8000 -8000 0 -8000 0 0
-8000z m3938 5754 l2 -331 -155 -7 c-457 -19 -734 -99 -874 -252 -105 -115
-173 -304 -212 -594 -8 -59 -14 -554 -19 -1615 -5 -1046 -11 -1557 -19 -1615
-45 -338 -100 -551 -195 -755 -105 -225 -266 -414 -457 -538 -58 -38 -219
-117 -238 -117 -28 0 -5 -17 58 -43 148 -60 329 -189 429 -306 219 -258 335
-566 403 -1071 8 -59 14 -562 19 -1645 5 -1132 10 -1582 19 -1640 40 -269 114
-442 238 -555 142 -130 431 -213 783 -226 74 -3 154 -7 178 -10 l42 -5 0 -331
0 -330 -337 5 c-358 5 -449 14 -653 63 -360 86 -628 231 -847 455 -291 299
-457 687 -535 1253 -20 145 -21 205 -28 1611 -7 1443 -7 1461 -29 1575 -39
209 -105 388 -194 530 -86 139 -196 232 -341 290 -73 29 -235 60 -311 60 l-35
0 2 318 3 317 99 8 c116 8 248 49 341 105 77 46 200 170 247 248 70 115 134
290 167 454 44 220 44 208 51 1685 6 1383 7 1413 28 1562 85 585 259 980 561
1272 128 124 256 211 431 295 152 73 292 118 475 155 129 26 205 35 440 55 22
1 135 2 250 2 l210 -1 3 -331z m8672 311 c528 -49 945 -203 1242 -458 311
-268 496 -675 580 -1275 22 -154 22 -186 28 -1617 l6 -1460 23 -125 c39 -210
116 -420 204 -550 129 -192 339 -310 579 -328 l103 -7 3 -316 2 -316 -77 -7
c-471 -39 -727 -343 -815 -966 -20 -139 -21 -206 -28 -1550 -7 -1360 -7 -1410
-28 -1555 -143 -1009 -634 -1565 -1522 -1724 -176 -32 -312 -41 -587 -41
l-253 0 0 329 0 329 123 6 c381 21 562 57 742 150 209 107 314 317 366 731 8
61 14 590 19 1615 7 1603 6 1551 51 1805 61 352 200 662 389 867 108 118 304
251 443 299 36 13 50 29 25 29 -19 0 -207 92 -253 124 -182 124 -321 286 -425
495 -103 206 -160 412 -211 766 -9 57 -14 538 -19 1640 -5 1073 -11 1586 -19
1642 -59 427 -188 615 -496 726 -141 50 -338 82 -600 95 l-130 7 -3 320 c-1
176 0 326 3 334 4 11 37 12 193 7 103 -4 257 -13 342 -21z"/>
</g>
</svg>
